<?xml version="1.0" standalone="no"?><!DOCTYPE svg PUBLIC "-//W3C//DTD SVG 1.1//EN" "http://www.w3.org/Graphics/SVG/1.1/DTD/svg11.dtd"><svg t="1608877193042" class="icon" viewBox="0 0 1024 1024" version="1.1" xmlns="http://www.w3.org/2000/svg" p-id="5115" width="64" height="64" xmlns:xlink="http://www.w3.org/1999/xlink"><defs><style type="text/css">@font-face { font-weight: 400; font-style: normal; font-family: Circular-Loom; src: url("https://cdn.loom.com/assets/fonts/circular/CircularXXWeb-Book-cd7d2bcec649b1243839a15d5eb8f0a3.woff2") format("woff2"); }
@font-face { font-weight: 500; font-style: normal; font-family: Circular-Loom; src: url("https://cdn.loom.com/assets/fonts/circular/CircularXXWeb-Medium-d74eac43c78bd5852478998ce63dceb3.woff2") format("woff2"); }
@font-face { font-weight: 700; font-style: normal; font-family: Circular-Loom; src: url("https://cdn.loom.com/assets/fonts/circular/CircularXXWeb-Bold-83b8ceaf77f49c7cffa44107561909e4.woff2") format("woff2"); }
@font-face { font-weight: 900; font-style: normal; font-family: Circular-Loom; src: url("https://cdn.loom.com/assets/fonts/circular/CircularXXWeb-Black-bf067ecb8aa777ceb6df7d72226febca.woff2") format("woff2"); }
</style></defs><path d="M758.3 409.8h-3c-15 0-28.6 4.5-40.6 12-10.5-31.6-39.1-54.1-73.6-54.1-15.1 0-30.1 4.5-43.6 12-10.5-31.6-39.1-54.1-73.7-54.1-13.5 0-27 3-37.6 9v-81.2c0-45.1-33.1-81.2-78.2-81.2s-81 36.2-81 81.3v312.6l-49.6-49.6c-31.5-31.6-87.2-27-114.2 0-27.1 27-45.1 81.2-6 120.2l225.5 225.5c4.5 4.5 10.5 9 15 12 42.2 33.1 88.7 54.1 187.9 54.1C814 928.3 835 805.1 835 651.8V490.9c0-45-33.1-81.1-76.7-81.1m34.6 242c0 129.3 0 233-205.8 233-87.2 0-139.8-19.5-178.9-58.6l-215-213.5c-19.5-19.5-13.5-43.6 1.5-58.6s43.6-16.5 58.6-1.5c0 0 37.6 37.6 70.7 69.1l46.5 46.6V261c0-21 16.5-37.6 39.1-37.6 21 0 36.1 16.5 36.1 37.6v263c-0.3 11.3 8.7 20.8 20 21h1c12 0 21-9 21-21V412.8c0-21 15-37.6 36.1-37.6 0 0 37.6 0 37.6 37.6v144.3c-0.3 11.3 8.7 20.8 20 21h1c12 0 21-9 21-21V454.8c0-21 15-37.5 36.1-37.5 0 0 37.6 3 37.6 37.6v127.7c-0.3 11.3 8.7 20.8 20 21h1c12 0 21-9 21-21V494c0-21 16.5-37.6 37.6-37.6 0 0 37.6-1.5 37.6 37.6l-1.4 157.8m-499-278.1v-70.6c-6-15-10.5-31.6-10.5-49.6 0-67.6 54.1-121.7 121.7-121.7s121.8 54.1 121.8 121.8c0 9-1.5 18-3 27 15 0 28.6 7.5 39.1 16.5 4.5-13.5 6-28.6 6-43.6 0-91.6-73.6-165.3-163.8-165.3-90.4 0.2-163.6 73.4-163.8 163.8 0.1 46 19.1 90 52.5 121.7" p-id="5116" fill="#ffffff"></path></svg>
