<?xml version="1.0" standalone="no"?><!DOCTYPE svg PUBLIC "-//W3C//DTD SVG 1.1//EN" "http://www.w3.org/Graphics/SVG/1.1/DTD/svg11.dtd"><svg t="1608691130135" class="icon" viewBox="0 0 1024 1024" version="1.1" xmlns="http://www.w3.org/2000/svg" p-id="2701" width="104" height="104" xmlns:xlink="http://www.w3.org/1999/xlink"><defs><style type="text/css">@font-face { font-weight: 400; font-style: normal; font-family: Circular-Loom; src: url("https://cdn.loom.com/assets/fonts/circular/CircularXXWeb-Book-cd7d2bcec649b1243839a15d5eb8f0a3.woff2") format("woff2"); }
@font-face { font-weight: 500; font-style: normal; font-family: Circular-Loom; src: url("https://cdn.loom.com/assets/fonts/circular/CircularXXWeb-Medium-d74eac43c78bd5852478998ce63dceb3.woff2") format("woff2"); }
@font-face { font-weight: 700; font-style: normal; font-family: Circular-Loom; src: url("https://cdn.loom.com/assets/fonts/circular/CircularXXWeb-Bold-83b8ceaf77f49c7cffa44107561909e4.woff2") format("woff2"); }
@font-face { font-weight: 900; font-style: normal; font-family: Circular-Loom; src: url("https://cdn.loom.com/assets/fonts/circular/CircularXXWeb-Black-bf067ecb8aa777ceb6df7d72226febca.woff2") format("woff2"); }
</style></defs><path d="M801.82303 400.384h-2.234182c-16.663273 0-30.347636 5.368242-43.504484 14.491152-11.512242-37.670788-40.835879-64.791273-78.568728-64.791273-16.663273 0-32.581818 5.368242-45.738666 14.491151-11.512242-37.639758-40.835879-64.791273-78.599758-64.791272-14.708364 0-28.392727 4.158061-40.494545 11.419151V214.295273c0-52.782545-35.622788-95.573333-83.068122-95.573334-47.445333 0-85.891879 42.790788-85.891878 95.573334v370.998303l-52.19297-58.243879c-33.512727-37.329455-92.904727-31.992242-121.452606 0-28.547879 32.023273-47.290182 96.442182-6.392243 142.273939l239.864243 267.046788c4.964848 5.523394 10.395152 10.115879 16.135757 13.963637 43.721697 40.029091 93.835636 63.674182 199.804122 63.674181 242.067394 0 264.502303-146.369939 264.502303-326.935272v-191.146667c0-52.751515-34.722909-95.542303-82.168243-95.542303z m36.957091 286.68897c0 152.793212-0.651636 276.635152-219.291151 276.635151-92.625455 0-148.231758-23.148606-190.370909-70.004363l-227.079758-252.83491c-20.107636-22.528-15.049697-51.324121 1.396364-69.756121 16.446061-18.432 46.638545-19.052606 62.52606-1.396363a2485222.244848 2485222.244848 0 0 0 122.973091 136.998788V224.349091c0-25.010424 18.214788-45.273212 40.649697-45.273212 22.49697 0 37.85697 20.262788 37.85697 45.304242v306.765576h0.465454a28.175515 28.175515 0 0 0-0.434424 5.057939c0 13.870545 10.115879 25.134545 22.590061 25.134546 12.474182 0 22.590061-11.264 22.59006-25.134546a27.803152 27.803152 0 0 0-0.434424-5.057939h0.434424v-125.734788c0-24.979394 16.259879-45.273212 38.725819-45.273212 0 0 39.811879-0.589576 39.811878 45.304242v165.950061h0.465455a28.175515 28.175515 0 0 0-0.465455 5.026909c0 13.901576 10.146909 25.134545 22.621091 25.134546 12.474182 0 22.590061-11.23297 22.590061-25.134546a27.803152 27.803152 0 0 0-0.434424-5.026909h0.434424v-115.68097c0-25.010424 16.011636-45.273212 38.477576-45.273212 0 0 40.649697 2.854788 40.649697 45.304243v145.842424h0.434424a28.020364 28.020364 0 0 0-0.434424 5.026909c0 13.870545 10.115879 25.134545 22.59006 25.134545 12.474182 0 22.031515-11.264 22.031515-25.134545a29.385697 29.385697 0 0 0-0.434424-5.026909h0.434424v-99.607273c0-24.979394 16.756364-45.273212 39.222303-45.273212 0 0 39.408485-1.768727 39.408485 45.304242v185.064728zM310.147879 356.786424V272.259879a159.185455 159.185455 0 0 1-11.23297-58.957576C298.914909 133.213091 356.848485 68.266667 428.311273 68.266667s129.396364 64.915394 129.396363 145.004606c0 10.922667-1.179152 21.566061-3.227151 31.77503 16.259879 0.713697 30.937212 8.285091 41.642667 20.44897a215.660606 215.660606 0 0 0 6.578424-52.224c0-107.954424-78.072242-195.459879-174.390303-195.459879s-174.390303 87.505455-174.390303 195.459879c0 56.785455 21.721212 107.768242 56.226909 143.484121z" p-id="2702" fill="#008154"></path></svg>
